# xmcd
#
# Track frame offsets:
#	150
#	14435
#	33139
#	50471
#	67198
#	89793
#	106336
#	125686
#	145503
#	165703
#	181007
#	199345
#
# Disc length: 2879 seconds
#
# Revision: 1
# Processed by: cddbd v1.5.2PL0 Copyright (c) Steve Scherf et al.
# Submitted via: audiograbber 1.83.01
#
DISCID=a70b3d0c
DTITLE=KATY PERRY - QG-FTX1011
DYEAR=2011
DGENRE=
TTITLE0=KATY PERRY - I KISSED A GIRL
TTITLE1=KATY PERRY - CALIFORNIA GIRLS
TTITLE2=KATY PERRY - HOT" N' COLD
TTITLE3=KATY PERRY - IF WE EVER MET AGAIN
TTITLE4=KATY PERRY - U R SO GUY
TTITLE5=KATY PERRY - ONE OF THE BOYS
TTITLE6=KATY PERRY - THINKING OF YOU
TTITLE7=KATY PERRY - LOST
TTITLE8=KATY PERRY - STARSTRUCKK
TTITLE9=KATY PERRY - LAST FRI NIGHT
TTITLE10=KATY PERRY - NOT SURE
TTITLE11=KATY PERRY - NOT SURE
EXTD=
EXTT0=
EXTT1=
EXTT2=
EXTT3=
EXTT4=
EXTT5=
EXTT6=
EXTT7=
EXTT8=
EXTT9=
EXTT10=
EXTT11=
PLAYORDER=
